<svg width="28" height="29" viewBox="0 0 28 29" fill="none" xmlns="http://www.w3.org/2000/svg">
<path fill-rule="evenodd" clip-rule="evenodd" d="M7.73333 28C11.4521 28 14.4667 24.9854 14.4667 21.2667C14.4667 17.5479 11.4521 14.5333 7.73333 14.5333C4.01462 14.5333 1 17.5479 1 21.2667C1 24.9854 4.01462 28 7.73333 28ZM7.73333 29C12.0043 29 15.4667 25.5377 15.4667 21.2667C15.4667 16.9957 12.0043 13.5333 7.73333 13.5333C3.46233 13.5333 0 16.9957 0 21.2667C0 25.5377 3.46233 29 7.73333 29Z" fill="#A4ACAD"/>
<path d="M9.66667 21.2667C9.66667 22.3344 8.80109 23.2 7.73334 23.2C6.66559 23.2 5.8 22.3344 5.8 21.2667C5.8 20.1989 6.66559 19.3333 7.73334 19.3333C8.80109 19.3333 9.66667 20.1989 9.66667 21.2667Z" fill="#A4ACAD"/>
<path fill-rule="evenodd" clip-rule="evenodd" d="M19.3333 14.4667C23.052 14.4667 26.0667 11.4521 26.0667 7.73333C26.0667 4.01462 23.052 1 19.3333 1C15.6146 1 12.6 4.01462 12.6 7.73333C12.6 11.4521 15.6146 14.4667 19.3333 14.4667ZM19.3333 15.4667C23.6043 15.4667 27.0667 12.0043 27.0667 7.73333C27.0667 3.46233 23.6043 0 19.3333 0C15.0623 0 11.6 3.46233 11.6 7.73333C11.6 12.0043 15.0623 15.4667 19.3333 15.4667Z" fill="#A4ACAD"/>
<path d="M21.2667 7.73334C21.2667 8.80109 20.4011 9.66667 19.3333 9.66667C18.2656 9.66667 17.4 8.80109 17.4 7.73334C17.4 6.66559 18.2656 5.8 19.3333 5.8C20.4011 5.8 21.2667 6.66559 21.2667 7.73334Z" fill="#A4ACAD"/>
<path fill-rule="evenodd" clip-rule="evenodd" d="M5.8 10.6C7.38322 10.6 8.66667 9.31655 8.66667 7.73334C8.66667 6.15012 7.38322 4.86667 5.8 4.86667C4.21678 4.86667 2.93333 6.15012 2.93333 7.73334C2.93333 9.31655 4.21678 10.6 5.8 10.6ZM5.8 11.6C7.9355 11.6 9.66667 9.86884 9.66667 7.73334C9.66667 5.59783 7.9355 3.86667 5.8 3.86667C3.6645 3.86667 1.93333 5.59783 1.93333 7.73334C1.93333 9.86884 3.6645 11.6 5.8 11.6Z" fill="#A4ACAD"/>
<path d="M6.76667 7.73334C6.76667 8.26721 6.33388 8.7 5.8 8.7C5.26613 8.7 4.83334 8.26721 4.83334 7.73334C4.83334 7.19946 5.26613 6.76667 5.8 6.76667C6.33388 6.76667 6.76667 7.19946 6.76667 7.73334Z" fill="#A4ACAD"/>
<path fill-rule="evenodd" clip-rule="evenodd" d="M21.2667 26.0667C22.8499 26.0667 24.1333 24.7832 24.1333 23.2C24.1333 21.6168 22.8499 20.3333 21.2667 20.3333C19.6835 20.3333 18.4 21.6168 18.4 23.2C18.4 24.7832 19.6835 26.0667 21.2667 26.0667ZM21.2667 27.0667C23.4022 27.0667 25.1333 25.3355 25.1333 23.2C25.1333 21.0645 23.4022 19.3333 21.2667 19.3333C19.1312 19.3333 17.4 21.0645 17.4 23.2C17.4 25.3355 19.1312 27.0667 21.2667 27.0667Z" fill="#A4ACAD"/>
<path d="M22.2333 23.2C22.2333 23.7339 21.8005 24.1667 21.2667 24.1667C20.7328 24.1667 20.3 23.7339 20.3 23.2C20.3 22.6661 20.7328 22.2333 21.2667 22.2333C21.8005 22.2333 22.2333 22.6661 22.2333 23.2Z" fill="#A4ACAD"/>
</svg>
